<svg width="48" height="48" viewBox="0 0 48 48" fill="none" xmlns="http://www.w3.org/2000/svg">
<g clip-path="url(#clip0_239_50)">
<path d="M0 16.1C0 10.4051 0 7.55764 1.12587 5.39026C2.07462 3.56382 3.56382 2.07462 5.39026 1.12587C7.55764 0 10.4051 0 16.1 0H31.9C37.5949 0 40.4424 0 42.6097 1.12587C44.4362 2.07462 45.9254 3.56382 46.8741 5.39026C48 7.55764 48 10.4051 48 16.1V31.9C48 37.5949 48 40.4424 46.8741 42.6097C45.9254 44.4362 44.4362 45.9254 42.6097 46.8741C40.4424 48 37.5949 48 31.9 48H16.1C10.4051 48 7.55764 48 5.39026 46.8741C3.56382 45.9254 2.07462 44.4362 1.12587 42.6097C0 40.4424 0 37.5949 0 31.9V16.1Z" fill="url(#paint0_linear_239_50)"/>
<path d="M18.5 36.75C17.5281 36.75 17.6932 36.383 17.358 35.4576L14.5 26.0515L36.5 13" fill="#C8DAEA"/>
<path d="M18.5 36.75C19.25 36.75 19.5814 36.407 20 36L24 32.1105L19.0105 29.1017" fill="#A9C9DD"/>
<path d="M19.01 29.1025L31.1 38.0347C32.4796 38.796 33.4753 38.4018 33.819 36.7539L38.7402 13.5631C39.2441 11.5431 37.9702 10.6269 36.6504 11.2261L7.75288 22.3688C5.78036 23.16 5.79186 24.2605 7.39333 24.7508L14.8091 27.0654L31.9773 16.2341C32.7878 15.7427 33.5317 16.0069 32.9211 16.5487" fill="url(#paint1_linear_239_50)"/>
</g>
<defs>
<linearGradient id="paint0_linear_239_50" x1="32.0016" y1="8.0016" x2="20.0016" y2="36" gradientUnits="userSpaceOnUse">
<stop stop-color="#37AEE2"/>
<stop offset="1" stop-color="#1E96C8"/>
</linearGradient>
<linearGradient id="paint1_linear_239_50" x1="27.7512" y1="22.9997" x2="32.4459" y2="33.6829" gradientUnits="userSpaceOnUse">
<stop stop-color="#EFF7FC"/>
<stop offset="1" stop-color="white"/>
</linearGradient>
<clipPath id="clip0_239_50">
<rect width="48" height="48" fill="white"/>
</clipPath>
</defs>
</svg>
